<?xml version="1.0" standalone="no"?><!DOCTYPE svg PUBLIC "-//W3C//DTD SVG 1.1//EN" "http://www.w3.org/Graphics/SVG/1.1/DTD/svg11.dtd"><svg class="icon" width="200px" height="200.00px" fill="#fff" viewBox="0 0 1024 1024" version="1.1" xmlns="http://www.w3.org/2000/svg"><path d="M941.15 783.5h-465.051c-0.015 0-0.033 0-0.050 0-9.886 0-17.9-8.014-17.9-17.9 0 0 0 0 0 0v-17.9c0-9.85 8.050-17.9 17.95-17.9h465.051c9.9 0 17.9 8.050 17.9 17.9v17.9c0 9.9-8 17.9-17.9 17.9zM941.15 586.75h-393.501c-0.015 0-0.033 0-0.050 0-9.859 0-17.85-7.992-17.85-17.85 0-0.018 0-0.036 0-0.053v-17.847c0-9.85 8-17.85 17.9-17.85h393.501c9.9 0 17.9 8 17.9 17.85v17.9c0 9.9-8 17.9-17.9 17.9zM941.15 389.95h-321.999c0 0 0 0 0 0-9.859 0-17.85-7.992-17.85-17.85v-17.9c0-9.9 8-17.9 17.9-17.9h321.999c9.85 0 17.85 8 17.85 17.9v17.799c0 9.9-8 17.9-17.9 17.9zM300.1 809.55s-115.2 150.6-174.849 131.151c-59.4-19.35-63.249-208.75-63.249-208.75l217.45-630.201c9.201-28.2 39.5-43.55 67.65-34.401l136.050 44.4c28.2 9.15 43.6 39.45 34.401 67.6l-217.551 630.201zM449.5 157.199l-102-33.2c-1.659-0.563-3.57-0.887-5.557-0.887-7.906 0-14.612 5.14-16.957 12.261l-200.887 579.127s-11.25 146.85 22.299 157.8c34.449 11.2 113.75-113.5 113.75-113.5l200.8-579c0.556-1.651 0.877-3.551 0.877-5.526 0-7.883-5.111-14.574-12.201-16.938z" /></svg>