<?xml version="1.0" standalone="no"?><!DOCTYPE svg PUBLIC "-//W3C//DTD SVG 1.1//EN" "http://www.w3.org/Graphics/SVG/1.1/DTD/svg11.dtd"><svg class="icon" width="200px" height="200.00px" viewBox="0 0 1024 1024" version="1.1" xmlns="http://www.w3.org/2000/svg"><path d="M939.342902 426.928463c-9.117658 0-17.202801-6.601348-18.838044-15.980973-15.512299-88.848561-66.307172-165.955706-143.035694-217.084177-77.051887-51.359738-171.069167-70.458725-264.724197-53.780881-10.409071 1.851161-20.337187-5.16872-22.168906-15.685237-1.833765-10.511401 5.115508-20.540825 15.530719-22.391987 103.331413-18.404162 207.193923 2.756787 292.456818 59.580981 85.59547 57.05239 142.292773 143.227052 159.651116 242.649435 1.840928 10.511401-5.115508 20.539802-15.529694 22.38994a18.388812 18.388812 0 0 1-3.342118 0.302899zM785.463232 441.339684c-9.116635 0-17.195637-6.594185-18.830881-15.974833-9.091052-52.067866-38.885636-97.265254-83.890642-127.260406-45.337581-30.221302-100.688213-41.454134-155.856697-31.628348-10.414187 1.853208-20.334117-5.172813-22.172999-15.683191-1.836835-10.512425 5.114484-20.545942 15.527649-22.398126 64.847937-11.540847 130.050961 1.746784 183.590341 37.442774 53.880141 35.904745 89.575108 90.178859 100.507088 152.813385 1.841951 10.517541-5.116531 20.545942-15.530718 22.399149a19.476587 19.476587 0 0 1-3.343141 0.289596z m-115.257024 49.923016c-9.115612 0-17.189498-6.590092-18.829857-15.977903-4.686742-26.824949-20.068058-50.14098-43.321668-65.635883-23.579021-15.719007-52.405557-21.555945-81.169671-16.432251-10.414187 1.857301-20.341281-5.16872-22.174022-15.686261-1.836835-10.510378 5.114484-20.537755 15.527648-22.389939 38.441521-6.851035 77.120448 1.048889 108.904339 22.240537 32.121582 21.405519 53.410444 53.791114 59.942207 91.190908 1.835811 10.517541-5.117554 20.543895-15.529695 22.397103a18.8493 18.8493 0 0 1-3.349281 0.293689zM359.310436 680.558997c63.600527 62.557778 135.01809 119.659287 201.144136 160.801313 64.10297 39.896662 120.645754 62.779835 155.13015 62.779835 30.719652 0 74.501808-18.943444 117.141953-50.669006 18.686594-13.913894 35.703153-29.404704 47.901987-43.617404 11.44261-13.34289 15.628956-22.053272 16.696264-25.565259-4.429893-9.599635-30.704302-39.60195-92.02081-82.318843-24.059975-16.759709-48.930409-32.154327-70.03303-43.361577-26.499537-14.065344-37.543058-16.495696-40.063461-16.898879-0.986467 0.686638-3.868097 3.121084-8.261151 10.549264-4.910846 8.31334-9.628288 19.335371-14.195303 29.992081-5.615904 13.122879-11.431354 26.683732-18.556635 37.636179-11.594059 17.799388-25.825179 26.835182-42.304501 26.841321-0.299829 0-0.60989 0-0.928139-0.013303-8.018627-0.172939-32.431643-0.694825-98.711186-46.275952-36.588313-25.172309-76.326363-57.805544-106.276489-87.308485l-0.468674-0.464581c-29.212322-30.261211-61.526285-70.37686-86.454024-107.323331-45.143153-66.930365-45.667086-91.581812-45.834908-99.68742-0.355087-16.941857 8.497535-31.556717 26.307156-43.474141 10.894118-7.278777 24.438599-13.19451 37.543058-18.919908 10.55131-4.608971 21.457708-9.373485 29.693276-14.32731 7.350408-4.426823 9.775644-7.339152 10.439769-8.340969-0.393973-2.549056-2.801812-13.699-16.729009-40.460504-11.092639-21.304212-26.349111-46.421262-42.933835-70.710458-42.309618-61.930491-72.022337-88.459704-81.518618-92.930529-3.482311 1.080611-12.103666 5.305843-25.320689 16.866133-14.081717 12.305257-29.418007 29.492708-43.188638 48.367591-31.423687 43.048445-50.172703 87.266529-50.172703 118.28601 0 34.81697 22.649859 91.911316 62.157665 156.649759 40.750099 66.778916 97.29186 138.89949 159.237701 203.120141l20.578688 20.778232z m356.275309 276.329513c-57.078996 0-130.774439-38.396495-182.542476-70.614268-69.325925-43.140543-144.014998-102.829993-210.30989-168.051437l-0.2415-0.239454-21.046339-21.259186c-64.592111-66.942645-123.694183-142.367475-166.422334-212.375945C103.122659 432.073646 65.092507 357.660866 65.092507 300.018028c0-61.685921 43.683918-127.151935 62.458517-152.431692 14.653745-19.736507 65.850777-84.116793 109.351524-84.116792 17.857716 0 37.093826 11.805884 62.375629 38.283931 22.363334 23.407106 43.822065 52.511981 57.881269 72.801073 18.885116 27.237341 36.348859 55.757908 49.186236 80.308047 20.774139 39.752376 23.176862 56.80782 23.176862 66.170049 0 18.893302-9.776667 35.287691-29.048593 48.716538-12.69002 8.836249-27.930119 15.490809-42.659589 21.927405-9.940396 4.343935-25.806759 11.271718-31.859615 16.143679 2.117221 9.027607 11.344373 30.842449 36.282344 67.818595 23.2444 34.46086 53.299927 71.797209 80.449264 99.951433 27.884071 27.41642 64.851007 57.774845 98.988501 81.239256 36.600593 25.178449 58.202587 34.502815 67.156516 36.637431 4.816702-6.110161 11.680017-22.132066 15.97995-32.16149 6.371104-14.878872 12.96529-30.270421 21.718651-43.085284 13.304004-19.467377 29.531594-29.330002 48.250934-29.330003 9.271154 0 26.15673 2.422166 65.521272 23.400967 24.316825 12.960173 52.562123 30.596855 79.535451 49.668213 20.091594 14.19735 48.910966 35.864836 72.098062 58.43897 26.213012 25.538653 37.906332 44.959981 37.906331 62.996776 0 43.926442-63.74993 95.627964-83.292008 110.418832-25.050536 18.97312-89.884147 63.074547-150.96427 63.074548z" /></svg>